# AST/ASF file generated using VICON BodyLanguage
# -----------------------------------------------
:version 1.10
:name VICON
:units
  mass 1.0
  length 0.45
  angle deg
:documentation
   .ast/.asf automatically generated from VICON data using
   VICON BodyBuilder and BodyLanguage model FoxedUp or BRILLIANT.MOD
:root
   order TX TY TZ RX RY RZ
   axis XYZ
   position 0 0 0  
   orientation 0 0 0 
:bonedata
  begin
     id 1 
     name lhipjoint
     direction 0.627457 -0.725269 0.283342 
     length 2.53237 
     axis 0 0 0  XYZ
  end
  begin
     id 2 
     name lfemur
     direction 0.34202 -0.939693 0  
     length 7.32496  
     axis 0 0 20  XYZ
    dof rx ry rz
    limits (-160.0 20.0)
           (-70.0 70.0)
           (-60.0 70.0)
  end
  begin
     id 3 
     name ltibia
     direction 0.34202 -0.939693 0   
     length 7.69674   
     axis 0 0 20   XYZ
    dof rx
    limits (-10.0 170.0)
  end
  begin
     id 4 
     name lfoot
     direction 0.127289 -0.349722 0.928166   
     length 1.8612   
     axis -90 7.62852e-016 20   XYZ
    dof rx rz
    limits (-45.0 90.0)
           (-70.0 20.0)
  end
  begin
     id 5 
     name ltoes
     direction 1.53561e-011 -4.21864e-011 1   
     length 0.925608   
     axis -90 7.62852e-016 20   XYZ
    dof rx
    limits (-90.0 20.0)
  end
  begin
     id 6 
     name rhipjoint
     direction -0.609094 -0.738725 0.288599   
     length 2.48624  
     axis 0 0 0  XYZ 
  end
  begin
     id 7 
     name rfemur
     direction -0.34202 -0.939693 0   
     length 7.44259   
     axis 0 0 -20   XYZ
    dof rx ry rz
    limits (-160.0 20.0)
           (-70.0 70.0)
           (-70.0 60.0)
  end
  begin
     id 8 
     name rtibia
     direction -0.34202 -0.939693 0   
     length 7.7781   
     axis 0 0 -20   XYZ
    dof rx
    limits (-10.0 170.0)
 end
 begin
     id 9 
     name rfoot
     direction -0.107015 -0.294021 0.949789   
     length 2.14741  
     axis -90 -7.62852e-016 -20   XYZ
    dof rx rz
    limits (-45.0 90.0)
           (-20.0 70.0)
  end
  begin
     id 10 
     name rtoes
     direction -1.53497e-011 -4.21924e-011 1   
     length 1.0706   
     axis -90 -7.62852e-016 -20   XYZ
    dof rx
    limits (-90.0 20.0)
  end
  begin
     id 11 
     name lowerback
     direction -0.0142066 0.998112 -0.0597545   
     length 1.86627   
     axis 0 0 0   XYZ
    dof rx ry rz
    limits (-20.0 45.0)
           (-30.0 30.0)
           (-30.0 30.0)
  end
  begin
     id 12 
     name upperback
     direction 0.00547294 0.999744 0.0219437   
     length 1.86272   
     axis 0 0 0   XYZ
    dof rx ry rz
    limits (-20.0 45.0)
           (-30.0 30.0)
           (-30.0 30.0)
  end
  begin
     id 13 
     name thorax
     direction 0.0116162 0.998704 0.0495538   
     length 1.8703   
     axis 0 0 0   XYZ
    dof rx ry rz
    limits (-20.0 45.0)
           (-30.0 30.0)
           (-30.0 30.0)
  end
  begin
     id 14 
     name lowerneck
     direction -0.0106574 0.998739 0.0490586   
     length 1.8074   
     axis 0 0 0   XYZ
    dof rx ry rz
    limits (-20.0 45.0)
           (-30.0 30.0)
           (-30.0 30.0)
  end
  begin
     id 15 
     name upperneck
     direction 0.030527 0.976587 -0.212944   
     length 1.80681   
     axis 0 0 0   XYZ
    dof rx ry rz
    limits (-20.0 45.0)
           (-30.0 30.0)
           (-30.0 30.0)
  end
  begin
     id 16
     name head
     direction 0.00869225 0.997035 -0.0764531  
     length 1.8313  
     axis 0 0 0   XYZ
    dof rx ry rz
    limits (-20.0 45.0)
           (-30.0 30.0)
           (-30.0 30.0)
  end
  begin
     id 17 
     name lclavicle
     direction 0.915958 0.399447 0.0382386  
     length 3.78965  
     axis 0 0 0   XYZ
    dof ry rz
    limits (-20.0 10.0)
           (0.0 20.0)
  end
  begin
     id 18 
     name lhumerus
     direction 1 -4.48967e-011 3.19303e-027   
     length 4.78095   
     axis -180 -30 -90   XYZ
    dof rx ry rz
    limits (-60.0 90.0)
           (-90.0 90.0)
           (-90.0 90.0)
  end
  begin
     id 19
     name lradius
     direction 1 -4.48967e-011 -3.77974e-027   
     length 3.58615   
     axis -180 -30 -90   XYZ
    dof rx
    limits (-10.0 170.0)
  end
  begin
     id 20
     name lwrist
     direction 1 -4.48927e-011 1.2807e-027   
     length 1.79307   
     axis 1.91374e-015 90 90   XYZ
    dof ry
    limits (-180.0 0.0)
 end
  begin
     id 21 
     name lhand
     direction 1 -4.49036e-011 2.5614e-027   
     length 0.659812   
     axis -1.63439e-015 90 90   XYZ
    dof rx rz
    limits (-90.0 90.0)
           (-45.0 45.0)
  end
  begin
     id 22 
     name lfingers
     direction 1 -4.49052e-011 5.1228e-027   
     length 0.531957   
     axis -3.26879e-015 90 90   XYZ
    dof rx
    limits (0.0 90.0)
  end
  begin
     id 23
     name lthumb
     direction 0.707107 -6.35012e-011 0.707107   
     length 0.763787   
     axis -90 45 2.85299e-015   XYZ
    dof rx rz
    limits (-45.0 45.0)
           (-45.0 45.0)
  end
  begin
     id 24 
     name rclavicle
     direction -0.895351 0.435135 0.0948887   
     length 3.70497  
     axis 0 0 0   XYZ 
    dof ry rz
    limits (-10.0 20.0)
           (-20.0 0.0)
  end
  begin
     id 25 
     name rhumerus
     direction -1 -4.48971e-011 2.38946e-027  
     length 4.48913   
     axis -180 30 90   XYZ
    dof rx ry rz
    limits (-90.0 60.0)
           (-90.0 90.0)
           (-90.0 90.0)
  end
  begin
     id 26 
     name rradius
     direction -1 -4.4895e-011 4.38668e-027   
     length 3.7051   
     axis -180 30 90   XYZ
    dof rx
    limits (-10.0 170.0)
  end
  begin
     id 27 
     name rwrist
     direction -1 -4.49007e-011 1.2807e-027   
     length 1.85255   
     axis 1.91374e-015 -90 -90   XYZ
    dof ry
    limits (-180.0 0.0)
  end
  begin
     id 28
     name rhand
     direction -1 -4.48851e-011 2.5614e-027   
     length 0.449136   
     axis -1.63439e-015 -90 -90   XYZ
    dof rx rz
    limits (-90.0 90.0)
           (-45.0 45.0)
  end
  begin
     id 29
     name rfingers
     direction -1 -4.49128e-011 5.1228e-027   
     length 0.362105   
     axis -3.26879e-015 -90 -90   XYZ
    dof rx
    limits (0.0 90.0)
  end
  begin
     id 30
     name rthumb
     direction -0.707107 -6.34851e-011 0.707107   
     length 0.519912   
     axis -90 -45 -2.85299e-015   XYZ
    dof rx rz
    limits (-45.0 45.0)
           (-45.0 45.0)
  end
:hierarchy
  begin
    root lhipjoint rhipjoint lowerback
    lhipjoint lfemur
    lfemur ltibia
    ltibia lfoot
    lfoot ltoes
    rhipjoint rfemur
    rfemur rtibia
    rtibia rfoot
    rfoot rtoes
    lowerback upperback
    upperback thorax
    thorax lowerneck lclavicle rclavicle
    lowerneck upperneck
    upperneck head
    lclavicle lhumerus
    lhumerus lradius
    lradius lwrist
    lwrist lhand lthumb
    lhand lfingers
    rclavicle rhumerus
    rhumerus rradius
    rradius rwrist
    rwrist rhand rthumb
    rhand rfingers
  end

#!OML:ASF I:\Actors\actors\Patient Classification 2\Patient 1\Session 1\actor1.ASF
:FULLY-SPECIFIED
:DEGREES
60
root -0.621339 18.6482 5.82728 -2.64963 -4.30402 -3.59189
lowerback 7.23164 0.966598 -0.375103
upperback 5.16604 1.25387 1.18315
thorax 1.2429 0.597062 1.35244
lowerneck -3.52541 -1.10081 -0.557971
upperneck 32.7914 -2.60801 3.49246
head 11.2367 -0.879325 1.11372
rclavicle -7.65321e-015 -3.97569e-015
rhumerus -30.2449 38.4031 -100.651
rradius 134.89
rwrist -3.81786
rhand -28.2114 -23.0521
rfingers 7.12502
rthumb -1.59004 -53.0259
lclavicle -7.65321e-015 -3.97569e-015
lhumerus -18.1678 -44.446 101.051
lradius 129.959
lwrist 20.3434
lhand -28.036 -45.8229
lfingers 7.12502
lthumb -1.42073 -15.8479
rfemur 11.3455 0.381277 17.3746
rtibia 2.06736e-014
rfoot -14.8163 -9.45255
rtoes -8.3404
lfemur -1.43907 -4.28597 -11.6729
ltibia 23.9844
lfoot -22.3325 12.6188
ltoes -55.9181
61
root -0.624227 18.6472 5.81067 -2.73666 -4.34017 -3.67557
lowerback 7.44084 0.906297 -0.367745
upperback 5.35461 1.17188 1.29119
thorax 1.32334 0.55301 1.4635
lowerneck -3.29969 -1.02721 -0.647507
upperneck 32.9031 -2.42513 3.268
head 11.2286 -0.834193 1.06762
rclavicle 1.31198e-014 -5.76476e-015
rhumerus -30.2074 38.7363 -101.098
rradius 135.396
rwrist -4.08388
rhand -27.9982 -22.9008
rfingers 7.12502
rthumb -1.3842 -52.876
lclavicle 1.31198e-014 -5.76476e-015
lhumerus -17.7531 -44.7206 101.077
lradius 130.412
lwrist 20.5021
lhand -27.9834 -45.7111
lfingers 7.12502
lthumb -1.36984 -15.7358
rfemur 11.3802 0.414897 17.4895
rtibia -2.8625e-014
rfoot -14.7769 -9.4929
rtoes -8.34656
lfemur -1.40995 -4.27307 -11.5624
ltibia 24.0193
lfoot -22.3229 12.6208
ltoes -55.938
62
root -0.626927 18.6469 5.79278 -2.80027 -4.34808 -3.66661
lowerback 7.65579 0.805143 -0.493613
upperback 5.48541 1.02851 1.41376
thorax 1.34073 0.47483 1.66792
lowerneck -2.89548 -0.91324 -0.855098
upperneck 32.9689 -2.16108 3.02485
head 11.1661 -0.770995 1.04367
rclavicle -1.35174e-014 1.53064e-014
rhumerus -29.7809 39.8293 -100.588
rradius 135.854
rwrist -4.99627
rhand -28.099 -23.0777
rfingers 7.12502
rthumb -1.48157 -53.0523
lclavicle -1.35174e-014 1.53064e-014
lhumerus -17.5762 -44.8186 101.288
lradius 130.852
lwrist 20.554
lhand -27.8944 -45.7927
lfingers 7.12502
lthumb -1.28394 -15.8168
rfemur 11.391 0.424411 17.4982
rtibia -3.81667e-014
rfoot -14.7735 -9.5373
rtoes -8.28264
lfemur -1.43022 -4.2818 -11.553
ltibia 24.0631
lfoot -22.3041 12.6037
ltoes -55.8543
63
root -0.628771 18.648 5.77452 -2.82408 -4.36163 -3.62582
lowerback 7.83937 0.647104 -0.695144
upperback 5.57302 0.80485 1.60903
thorax 1.33338 0.353259 1.996
lowerneck -2.56385 -0.712464 -1.53879
upperneck 33.239 -1.80297 3.06906
head 11.2041 -0.68931 1.22039
rclavicle 2.75814e-015 -8.94531e-016
rhumerus -30.2603 40.5341 -101.033
rradius 136.474
rwrist -5.37121
rhand -27.7359 -22.8266
rfingers 7.12502
rthumb -1.13086 -52.8033
lclavicle 2.75814e-015 -8.94531e-016
lhumerus -17.4828 -44.6599 101.603
lradius 131.279
lwrist 20.7176
lhand -27.9431 -46.1289
lfingers 7.12502
lthumb -1.33092 -16.1533
rfemur 11.357 0.440175 17.4657
rtibia -2.06736e-014
rfoot -14.743 -9.55961
rtoes -8.11936
lfemur -1.48777 -4.24273 -11.5779
ltibia 24.0945
lfoot -22.2578 12.593
ltoes -55.8399
64
root -0.630779 18.6485 5.75719 -2.87812 -4.40093 -3.64164
lowerback 8.31662 0.683111 -0.523447
upperback 5.52818 0.864076 1.53417
thorax 1.02511 0.390841 1.81264
lowerneck -2.16546 -0.716697 -1.68482
upperneck 33.5762 -1.87406 3.30806
head 11.2664 -0.715614 1.33288
rclavicle 1.24986e-014 -3.97569e-015
rhumerus -29.9477 41.4424 -100.935
rradius 136.702
rwrist -5.52162
rhand -28.3262 -23.4547
rfingers 7.12502
rthumb -1.70093 -53.4276
lclavicle 1.24986e-014 -3.97569e-015
lhumerus -17.6689 -45.2282 101.878
lradius 131.719
lwrist 21.1071
lhand -28.2497 -46.3362
lfingers 7.12502
lthumb -1.62707 -16.3626
rfemur 11.3567 0.479646 17.4987
rtibia 9.54166e-015
rfoot -14.725 -9.57046
rtoes -8.01863
lfemur -1.48795 -4.12796 -11.5334
ltibia 24.1113
lfoot -22.1874 12.5305
ltoes -55.8774
